<svg width="32" height="32" viewBox="0 0 32 32" fill="none" xmlns="http://www.w3.org/2000/svg">
<circle cx="16" cy="16" r="16" fill="url(#paint0_linear_2008_3)"/>
<path d="M16.0127 16.0059C16.0654 16.123 16.0273 16.2168 15.8984 16.2871C14.5977 16.9727 13.3555 16.999 12.1719 16.3662C10.9883 15.7275 10.3525 14.793 10.2646 13.5625C10.1826 12.332 10.5371 11.2393 11.3281 10.2842C12.125 9.32324 13.2354 8.8252 14.6592 8.79004C15.2217 8.77832 15.7812 8.89258 16.3379 9.13281C16.9004 9.36719 17.3047 9.58984 17.5508 9.80078C18.1484 10.334 18.6582 10.7588 19.0801 11.0752C19.5078 11.3857 19.9473 11.4297 20.3984 11.207C20.5449 11.125 20.6533 11.1396 20.7236 11.251C20.7939 11.3564 20.7207 11.4795 20.5039 11.6201C19.2207 12.4404 18.5352 13.1641 18.4473 13.791C18.3594 14.418 18.7988 15.4609 19.7656 16.9199C20.668 18.2852 20.9844 19.46 20.7148 20.4443C20.4512 21.4229 19.8418 22.2578 18.8867 22.9492C17.9668 23.6113 16.9561 23.9951 15.8545 24.1006C14.7588 24.2119 13.7275 23.8369 12.7607 22.9756C12.292 22.5537 11.8584 22.1699 11.46 21.8242C11.0615 21.4727 10.5723 21.4814 9.99219 21.8506C9.83984 21.9619 9.71973 21.9736 9.63184 21.8857C9.54395 21.7979 9.55273 21.6982 9.6582 21.5869C11.4219 19.7939 13.1445 19.8262 14.8262 21.6836C15.5996 22.5273 16.2969 22.999 16.918 23.0986C17.5391 23.1982 18.0781 23.043 18.5352 22.6328C18.9746 22.2168 19.1533 21.6982 19.0713 21.0771C18.9893 20.4561 18.6055 19.6182 17.9199 18.5635C16.959 17.1104 16.4932 16.0029 16.5225 15.2412C16.5576 14.4795 17.1289 13.6504 18.2363 12.7539C18.3066 12.6953 18.333 12.6367 18.3154 12.5781C18.2979 12.5195 18.2422 12.4932 18.1484 12.499C17.4277 12.4932 16.7451 12.1768 16.1006 11.5498C15.4619 10.9229 14.6768 10.6006 13.7451 10.583C12.8838 10.6357 12.2246 10.9316 11.7676 11.4707C11.3105 12.0039 11.1289 12.7803 11.2227 13.7998C11.3164 14.8193 11.8408 15.543 12.7959 15.9707C13.7568 16.3926 14.7295 16.3867 15.7139 15.9531C15.8545 15.8887 15.9541 15.9062 16.0127 16.0059Z" fill="url(#paint1_linear_2008_3)"/>
<defs>
<linearGradient id="paint0_linear_2008_3" x1="16" y1="0" x2="16" y2="32" gradientUnits="userSpaceOnUse">
<stop stop-color="#7CF0F8"/>
<stop offset="0.36" stop-color="#70DFF8"/>
<stop offset="0.645" stop-color="#449DFB"/>
<stop offset="1" stop-color="#0038FF"/>
</linearGradient>
<linearGradient id="paint1_linear_2008_3" x1="16" y1="5" x2="16" y2="27" gradientUnits="userSpaceOnUse">
<stop offset="0.15" stop-color="white"/>
<stop offset="0.505" stop-color="#D3D3D3"/>
<stop offset="0.85" stop-color="#999999"/>
</linearGradient>
</defs>
</svg>
