<svg width="119" height="32" viewBox="0 0 119 32" fill="none" xmlns="http://www.w3.org/2000/svg">
<path d="M38.494 9.526H40.762V22H38.494V9.526ZM43.6419 12.892C44.0619 12.772 44.6079 12.658 45.2799 12.55C45.9519 12.442 46.6959 12.388 47.5119 12.388C48.2799 12.388 48.9219 12.496 49.4379 12.712C49.9539 12.916 50.3619 13.21 50.6619 13.594C50.9739 13.966 51.1899 14.422 51.3099 14.962C51.4419 15.49 51.5079 16.072 51.5079 16.708V22H49.3299V17.05C49.3299 16.546 49.2939 16.12 49.2219 15.772C49.1619 15.412 49.0539 15.124 48.8979 14.908C48.7539 14.68 48.5499 14.518 48.2859 14.422C48.0339 14.314 47.7219 14.26 47.3499 14.26C47.0739 14.26 46.7859 14.278 46.4859 14.314C46.1859 14.35 45.9639 14.38 45.8199 14.404V22H43.6419V12.892ZM55.8812 17.266C55.8812 18.226 56.1092 18.982 56.5652 19.534C57.0212 20.074 57.6512 20.344 58.4552 20.344C58.8032 20.344 59.0972 20.332 59.3372 20.308C59.5892 20.272 59.7932 20.236 59.9492 20.2V14.8C59.7572 14.668 59.4992 14.548 59.1752 14.44C58.8632 14.32 58.5272 14.26 58.1672 14.26C57.3752 14.26 56.7932 14.53 56.4212 15.07C56.0612 15.61 55.8812 16.342 55.8812 17.266ZM62.1272 21.712C61.6952 21.844 61.1492 21.964 60.4892 22.072C59.8412 22.18 59.1572 22.234 58.4372 22.234C57.6932 22.234 57.0272 22.12 56.4392 21.892C55.8512 21.664 55.3472 21.34 54.9272 20.92C54.5192 20.488 54.2012 19.972 53.9732 19.372C53.7572 18.76 53.6492 18.076 53.6492 17.32C53.6492 16.576 53.7392 15.904 53.9192 15.304C54.1112 14.692 54.3872 14.17 54.7472 13.738C55.1072 13.306 55.5452 12.976 56.0612 12.748C56.5772 12.508 57.1712 12.388 57.8432 12.388C58.2992 12.388 58.7012 12.442 59.0492 12.55C59.3972 12.658 59.6972 12.778 59.9492 12.91V8.392L62.1272 8.032V21.712ZM67.0898 22H64.9118V12.586H67.0898V22ZM67.3238 9.832C67.3238 10.24 67.1918 10.564 66.9278 10.804C66.6638 11.044 66.3518 11.164 65.9918 11.164C65.6198 11.164 65.3018 11.044 65.0378 10.804C64.7738 10.564 64.6418 10.24 64.6418 9.832C64.6418 9.412 64.7738 9.082 65.0378 8.842C65.3018 8.602 65.6198 8.482 65.9918 8.482C66.3518 8.482 66.6638 8.602 66.9278 8.842C67.1918 9.082 67.3238 9.412 67.3238 9.832ZM73.7384 22.144C73.0784 22.144 72.4124 22.12 71.7404 22.072C71.0684 22.036 70.4804 21.952 69.9764 21.82V9.706C70.2404 9.658 70.5224 9.616 70.8224 9.58C71.1224 9.532 71.4284 9.496 71.7404 9.472C72.0524 9.448 72.3584 9.43 72.6584 9.418C72.9704 9.406 73.2644 9.4 73.5404 9.4C74.2964 9.4 74.9984 9.46 75.6464 9.58C76.2944 9.688 76.8524 9.874 77.3204 10.138C77.8004 10.402 78.1724 10.75 78.4364 11.182C78.7004 11.614 78.8324 12.148 78.8324 12.784C78.8324 13.372 78.6884 13.876 78.4004 14.296C78.1244 14.716 77.7344 15.052 77.2304 15.304C77.9864 15.556 78.5444 15.928 78.9044 16.42C79.2644 16.912 79.4444 17.536 79.4444 18.292C79.4444 19.576 78.9764 20.542 78.0404 21.19C77.1044 21.826 75.6704 22.144 73.7384 22.144ZM72.2084 16.384V20.182C72.4604 20.206 72.7304 20.224 73.0184 20.236C73.3064 20.248 73.5704 20.254 73.8104 20.254C74.2784 20.254 74.7104 20.224 75.1064 20.164C75.5144 20.104 75.8624 20.002 76.1504 19.858C76.4504 19.702 76.6844 19.498 76.8524 19.246C77.0324 18.994 77.1224 18.67 77.1224 18.274C77.1224 17.566 76.8644 17.074 76.3484 16.798C75.8324 16.522 75.1184 16.384 74.2064 16.384H72.2084ZM72.2084 14.602H73.8104C74.6744 14.602 75.3524 14.482 75.8444 14.242C76.3364 13.99 76.5824 13.546 76.5824 12.91C76.5824 12.31 76.3244 11.884 75.8084 11.632C75.3044 11.38 74.6444 11.254 73.8284 11.254C73.4804 11.254 73.1684 11.26 72.8924 11.272C72.6284 11.284 72.4004 11.302 72.2084 11.326V14.602ZM85.0105 20.47C85.6825 20.47 86.1925 20.434 86.5405 20.362V17.95C86.4205 17.914 86.2465 17.878 86.0185 17.842C85.7905 17.806 85.5385 17.788 85.2625 17.788C85.0225 17.788 84.7765 17.806 84.5245 17.842C84.2845 17.878 84.0625 17.944 83.8585 18.04C83.6665 18.136 83.5105 18.274 83.3905 18.454C83.2705 18.622 83.2105 18.838 83.2105 19.102C83.2105 19.618 83.3725 19.978 83.6965 20.182C84.0205 20.374 84.4585 20.47 85.0105 20.47ZM84.8305 12.352C85.5505 12.352 86.1565 12.442 86.6485 12.622C87.1405 12.802 87.5305 13.054 87.8185 13.378C88.1185 13.702 88.3285 14.098 88.4485 14.566C88.5805 15.022 88.6465 15.526 88.6465 16.078V21.784C88.3105 21.856 87.8005 21.94 87.1165 22.036C86.4445 22.144 85.6825 22.198 84.8305 22.198C84.2665 22.198 83.7505 22.144 83.2825 22.036C82.8145 21.928 82.4125 21.754 82.0765 21.514C81.7525 21.274 81.4945 20.962 81.3025 20.578C81.1225 20.194 81.0325 19.72 81.0325 19.156C81.0325 18.616 81.1345 18.16 81.3385 17.788C81.5545 17.416 81.8425 17.116 82.2025 16.888C82.5625 16.648 82.9765 16.48 83.4445 16.384C83.9245 16.276 84.4225 16.222 84.9385 16.222C85.1785 16.222 85.4305 16.24 85.6945 16.276C85.9585 16.3 86.2405 16.348 86.5405 16.42V16.06C86.5405 15.808 86.5105 15.568 86.4505 15.34C86.3905 15.112 86.2825 14.914 86.1265 14.746C85.9825 14.566 85.7845 14.428 85.5325 14.332C85.2925 14.236 84.9865 14.188 84.6145 14.188C84.1105 14.188 83.6485 14.224 83.2285 14.296C82.8085 14.368 82.4665 14.452 82.2025 14.548L81.9325 12.784C82.2085 12.688 82.6105 12.592 83.1385 12.496C83.6665 12.4 84.2305 12.352 84.8305 12.352ZM91.3137 12.892C91.7337 12.772 92.2797 12.658 92.9517 12.55C93.6237 12.442 94.3677 12.388 95.1837 12.388C95.9517 12.388 96.5937 12.496 97.1097 12.712C97.6257 12.916 98.0337 13.21 98.3337 13.594C98.6457 13.966 98.8617 14.422 98.9817 14.962C99.1137 15.49 99.1797 16.072 99.1797 16.708V22H97.0017V17.05C97.0017 16.546 96.9657 16.12 96.8937 15.772C96.8337 15.412 96.7257 15.124 96.5697 14.908C96.4257 14.68 96.2217 14.518 95.9577 14.422C95.7057 14.314 95.3937 14.26 95.0217 14.26C94.7457 14.26 94.4577 14.278 94.1577 14.314C93.8577 14.35 93.6357 14.38 93.4917 14.404V22H91.3137V12.892ZM104.021 16.258C104.297 15.97 104.591 15.664 104.903 15.34C105.215 15.004 105.521 14.674 105.821 14.35C106.121 14.014 106.403 13.696 106.667 13.396C106.943 13.084 107.177 12.814 107.369 12.586H109.943C109.343 13.258 108.707 13.954 108.035 14.674C107.375 15.394 106.709 16.096 106.037 16.78C106.397 17.08 106.775 17.446 107.171 17.878C107.567 18.298 107.951 18.748 108.323 19.228C108.695 19.708 109.043 20.188 109.367 20.668C109.691 21.148 109.961 21.592 110.177 22H107.657C107.441 21.628 107.189 21.238 106.901 20.83C106.625 20.422 106.325 20.026 106.001 19.642C105.677 19.258 105.347 18.898 105.011 18.562C104.675 18.214 104.345 17.92 104.021 17.68V22H101.843V8.392L104.021 8.032V16.258Z" fill="url(#paint0_linear_2008_3)"/>
<circle cx="16" cy="16" r="16" fill="url(#paint1_linear_2008_3)"/>
<path d="M16.0127 16.0059C16.0654 16.123 16.0273 16.2168 15.8984 16.2871C14.5977 16.9727 13.3555 16.999 12.1719 16.3662C10.9883 15.7275 10.3525 14.793 10.2646 13.5625C10.1826 12.332 10.5371 11.2393 11.3281 10.2842C12.125 9.32324 13.2354 8.8252 14.6592 8.79004C15.2217 8.77832 15.7812 8.89258 16.3379 9.13281C16.9004 9.36719 17.3047 9.58984 17.5508 9.80078C18.1484 10.334 18.6582 10.7588 19.0801 11.0752C19.5078 11.3857 19.9473 11.4297 20.3984 11.207C20.5449 11.125 20.6533 11.1396 20.7236 11.251C20.7939 11.3564 20.7207 11.4795 20.5039 11.6201C19.2207 12.4404 18.5352 13.1641 18.4473 13.791C18.3594 14.418 18.7988 15.4609 19.7656 16.9199C20.668 18.2852 20.9844 19.46 20.7148 20.4443C20.4512 21.4229 19.8418 22.2578 18.8867 22.9492C17.9668 23.6113 16.9561 23.9951 15.8545 24.1006C14.7588 24.2119 13.7275 23.8369 12.7607 22.9756C12.292 22.5537 11.8584 22.1699 11.46 21.8242C11.0615 21.4727 10.5723 21.4814 9.99219 21.8506C9.83984 21.9619 9.71973 21.9736 9.63184 21.8857C9.54395 21.7979 9.55273 21.6982 9.6582 21.5869C11.4219 19.7939 13.1445 19.8262 14.8262 21.6836C15.5996 22.5273 16.2969 22.999 16.918 23.0986C17.5391 23.1982 18.0781 23.043 18.5352 22.6328C18.9746 22.2168 19.1533 21.6982 19.0713 21.0771C18.9893 20.4561 18.6055 19.6182 17.9199 18.5635C16.959 17.1104 16.4932 16.0029 16.5225 15.2412C16.5576 14.4795 17.1289 13.6504 18.2363 12.7539C18.3066 12.6953 18.333 12.6367 18.3154 12.5781C18.2979 12.5195 18.2422 12.4932 18.1484 12.499C17.4277 12.4932 16.7451 12.1768 16.1006 11.5498C15.4619 10.9229 14.6768 10.6006 13.7451 10.583C12.8838 10.6357 12.2246 10.9316 11.7676 11.4707C11.3105 12.0039 11.1289 12.7803 11.2227 13.7998C11.3164 14.8193 11.8408 15.543 12.7959 15.9707C13.7568 16.3926 14.7295 16.3867 15.7139 15.9531C15.8545 15.8887 15.9541 15.9062 16.0127 16.0059Z" fill="url(#paint2_linear_2008_3)"/>
<defs>
<linearGradient id="paint0_linear_2008_3" x1="37" y1="16.5" x2="119" y2="16.5" gradientUnits="userSpaceOnUse">
<stop stop-color="#32F2F2"/>
<stop offset="0.505" stop-color="#318CF2"/>
<stop offset="1" stop-color="#2F2BF1"/>
</linearGradient>
<linearGradient id="paint1_linear_2008_3" x1="16" y1="0" x2="16" y2="32" gradientUnits="userSpaceOnUse">
<stop stop-color="#7CF0F8"/>
<stop offset="0.36" stop-color="#70DFF8"/>
<stop offset="0.645" stop-color="#449DFB"/>
<stop offset="1" stop-color="#0038FF"/>
</linearGradient>
<linearGradient id="paint2_linear_2008_3" x1="16" y1="5" x2="16" y2="27" gradientUnits="userSpaceOnUse">
<stop offset="0.15" stop-color="white"/>
<stop offset="0.505" stop-color="#D3D3D3"/>
<stop offset="0.85" stop-color="#999999"/>
</linearGradient>
</defs>
</svg>
